#!OML:ASF E:\Style4\Style4.ASF
:FULLY-SPECIFIED
:DEGREES
2925
root -0.264171 17.982 -1.55351 0.124955 0.888314 1.42565
lowerback 5.5512 1.59165 -0.708994
upperback 1.46133 2.0883 0.482198
thorax -1.65028 1.0441 0.748554
lowerneck -5.76731 -5.21474 -6.66463
upperneck 12.5492 -6.78277 3.46283
head 5.06682 -3.42201 1.73009
rclavicle 1.0958e-014 -1.07344e-014
rhumerus -47.4037 18.8764 -96.4815
rradius 78.9056
rwrist -25.4933
rhand -28.0608 31.2851
rfingers 7.12502
rthumb -1.44462 1.31023
lclavicle 1.0958e-014 -1.07344e-014
lhumerus -50.2475 -30.2764 102.675
lradius 87.4788
lwrist 20.3379
lhand -15.4028 27.0918
lfingers 7.12502
lthumb 10.7762 56.7954
rfemur -6.76463 1.50956 18.0052
rtibia 24.2856
rfoot -16.2894 -16.6812
rtoes -12.7131
lfemur -4.89768 -5.68939 -19.8727
ltibia 21.5744
lfoot -16.7586 10.3223
ltoes -16.0563
2926
root -0.264501 17.9823 -1.55914 0.105917 0.888608 1.42828
lowerback 5.54549 1.6152 -0.678834
upperback 1.50375 2.12101 0.465184
thorax -1.6024 1.06006 0.712878
lowerneck -5.82908 -5.23796 -6.72177
upperneck 12.5966 -6.81418 3.53199
head 5.09794 -3.43521 1.75623
rclavicle 9.54166e-015 1.39149e-014
rhumerus -47.1838 18.8771 -96.3908
rradius 78.9708
rwrist -25.4687
rhand -28.2294 31.3327
rfingers 7.12502
rthumb -1.6075 1.35903
lclavicle 9.54166e-015 1.39149e-014
lhumerus -49.9251 -30.4174 102.505
lradius 87.5254
lwrist 20.289
lhand -15.245 27.191
lfingers 7.12502
lthumb 10.9284 56.8866
rfemur -6.73428 1.48249 17.9993
rtibia 24.2236
rfoot -16.2495 -16.6467
rtoes -12.7111
lfemur -4.92138 -5.69864 -19.8728
ltibia 21.6282
lfoot -16.8151 10.3397
ltoes -16.1345
2927
root -0.267783 17.9831 -1.56999 0.197285 1.07881 1.39415
lowerback 5.5387 1.56778 -0.661467
upperback 1.46315 2.05917 0.475821
thorax -1.63899 1.02942 0.717848
lowerneck -5.82133 -5.25033 -6.75566
upperneck 12.6499 -6.8332 3.56384
head 5.11642 -3.44439 1.76982
rclavicle -1.51076e-014 -9.14409e-015
rhumerus -47.0528 18.9101 -96.331
rradius 79.0358
rwrist -25.4369
rhand -28.2355 31.4277
rfingers 7.12502
rthumb -1.61339 1.45402
lclavicle -1.51076e-014 -9.14409e-015
lhumerus -49.7133 -30.5041 102.382
lradius 87.5816
lwrist 20.2912
lhand -15.177 27.3383
lfingers 7.12502
lthumb 10.9941 57.0304
rfemur -6.82364 1.4348 18.0504
rtibia 24.1682
rfoot -16.2049 -16.7627
rtoes -12.8006
lfemur -5.137 -5.83702 -19.8062
ltibia 21.6916
lfoot -16.7213 10.2707
ltoes -15.8967
2928
root -0.268488 17.9839 -1.57898 0.270315 1.33227 1.29507
lowerback 5.53084 1.48171 -0.551365
upperback 1.43324 1.95152 0.507324
thorax -1.66083 0.975591 0.695753
lowerneck -5.85692 -5.26117 -6.79682
upperneck 12.7211 -6.84359 3.57049
head 5.1468 -3.45079 1.77604
rclavicle 1.73937e-015 7.15625e-015
rhumerus -46.9176 19.0407 -96.3083
rradius 79.0724
rwrist -25.4301
rhand -28.2917 31.3391
rfingers 7.12502
rthumb -1.66767 1.36586
lclavicle 1.73937e-015 7.15625e-015
lhumerus -49.5336 -30.5364 102.272
lradius 87.7207
lwrist 20.4027
lhand -15.2088 27.4239
lfingers 7.12502
lthumb 10.9633 57.1176
rfemur -6.87714 1.30491 18.1665
rtibia 24.1233
rfoot -16.1573 -16.8899
rtoes -12.9138
lfemur -5.33514 -6.04613 -19.6843
ltibia 21.752
lfoot -16.6141 10.2589
ltoes -16.0549
2929
root -0.268754 17.9833 -1.57878 0.122306 1.25142 1.23423
lowerback 5.6155 1.51368 -0.487803
upperback 1.50539 1.99735 0.517131
thorax -1.63285 0.997996 0.665894
lowerneck -5.87397 -5.27105 -6.79579
upperneck 12.7437 -6.8582 3.5836
head 5.15787 -3.45693 1.77821
rclavicle 1.3244e-014 -7.95139e-015
rhumerus -46.7439 19.1277 -96.2837
rradius 79.1053
rwrist -25.4543
rhand -28.4493 31.2001
rfingers 7.12502
rthumb -1.81981 1.22811
lclavicle 1.3244e-014 -7.95139e-015
lhumerus -49.288 -30.6356 102.135
lradius 87.7898
lwrist 20.4063
lhand -15.3041 27.4454
lfingers 7.12502
lthumb 10.8714 57.144
rfemur -6.72469 1.37181 18.2489
rtibia 24.1311
rfoot -16.1526 -16.8812
rtoes -12.8963
lfemur -5.16352 -5.96504 -19.6226
ltibia 21.7671
lfoot -16.6046 10.1864
ltoes -15.8718
2930
root -0.269182 17.9841 -1.57842 -0.00269629 1.12738 1.20622
lowerback 5.68898 1.56299 -0.462473
upperback 1.5579 2.06402 0.516957
thorax -1.62 1.031 0.645648
lowerneck -5.85988 -5.28066 -6.78512
upperneck 12.7714 -6.87384 3.58295
head 5.16451 -3.46437 1.77529
rclavicle 3.13583e-014 -3.18055e-015
rhumerus -46.63 19.18 -96.2377
rradius 79.1542
rwrist -25.3707
rhand -28.4407 31.2703
rfingers 7.12502
rthumb -1.81153 1.29825
lclavicle 3.13583e-014 -3.18055e-015
lhumerus -49.0775 -30.6655 101.993
lradius 87.8764
lwrist 20.3619
lhand -15.131 27.6093
lfingers 7.12502
lthumb 11.0384 57.299
rfemur -6.58172 1.42091 18.2939
rtibia 24.1567
rfoot -16.2225 -16.74
rtoes -12.32
lfemur -4.98543 -5.85959 -19.5929
ltibia 21.7485
lfoot -16.7008 10.0552
ltoes -15.1744
2931
root -0.269372 17.9858 -1.58149 -0.0719812 1.11587 1.23546
lowerback 5.77718 1.57496 -0.490239
upperback 1.57309 2.07796 0.514728
thorax -1.65464 1.03803 0.655599
lowerneck -5.84614 -5.28927 -6.8511
upperneck 12.7969 -6.88342 3.61003
head 5.17395 -3.47071 1.79361
rclavicle -4.96962e-015 3.18055e-015
rhumerus -46.5325 19.2191 -96.1767
rradius 79.2281
rwrist -25.3373
rhand -28.3117 31.3927
rfingers 7.12502
rthumb -1.68696 1.41964
lclavicle -4.96962e-015 3.18055e-015
lhumerus -48.9612 -30.622 101.888
lradius 88.0266
lwrist 20.3284
lhand -14.916 27.891
lfingers 7.12502
lthumb 11.2458 57.5696
rfemur -6.4588 1.33493 18.2604
rtibia 24.1721
rfoot -16.3599 -16.4704
rtoes -10.8606
lfemur -4.90276 -5.85132 -19.6363
ltibia 21.7364
lfoot -16.7478 10.0835
ltoes -15.0996
2932
root -0.269763 17.9874 -1.58719 -0.0110276 1.17116 1.26504
lowerback 5.74959 1.58182 -0.493217
upperback 1.56338 2.08652 0.487988
thorax -1.6485 1.04232 0.629851
lowerneck -5.86185 -5.32317 -6.87458
upperneck 12.8192 -6.92847 3.62708
head 5.18742 -3.49262 1.79869
rclavicle 2.41026e-015 3.18055e-015
rhumerus -46.3935 19.213 -96.1138
rradius 79.2645
rwrist -25.374
rhand -28.2214 31.3881
rfingers 7.12502
rthumb -1.59976 1.41439
lclavicle 2.41026e-015 3.18055e-015
lhumerus -48.8433 -30.7322 101.781
lradius 88.1491
lwrist 20.2857
lhand -14.8238 28.043
lfingers 7.12502
lthumb 11.3347 57.7167
rfemur -6.53991 1.28754 18.2242
rtibia 24.1675
rfoot -16.2641 -16.5123
rtoes -11.1477
lfemur -5.02899 -5.88282 -19.6668
ltibia 21.777
lfoot -16.7195 10.1287
ltoes -15.425
2933
root -0.271648 17.9864 -1.5958 0.177042 1.29726 1.19743
lowerback 5.62876 1.54583 -0.419798
upperback 1.49196 2.0434 0.486745
thorax -1.65131 1.02085 0.592807
lowerneck -5.88087 -5.33489 -6.8586
upperneck 12.8973 -6.94641 3.62482
head 5.21516 -3.50081 1.79289
rclavicle 1.88845e-014 -1.19271e-015
rhumerus -46.3084 19.2638 -96.1183
rradius 79.261
rwrist -25.373
rhand -28.2082 31.3389
rfingers 7.12502
rthumb -1.58701 1.36503
lclavicle 1.88845e-014 -1.19271e-015
lhumerus -48.7759 -30.7951 101.686
lradius 88.2305
lwrist 20.2929
lhand -14.9455 27.9957
lfingers 7.12502
lthumb 11.2173 57.6758
rfemur -6.81283 1.27381 18.2941
rtibia 24.1227
rfoot -16.0928 -16.7981
rtoes -12.2573
lfemur -5.34626 -6.04964 -19.5736
ltibia 21.8562
lfoot -16.7091 10.1604
ltoes -15.5277
2934
root -0.271644 17.9869 -1.59966 0.250341 1.40854 1.10241
lowerback 5.55004 1.50921 -0.299818
upperback 1.46833 2.00192 0.499531
thorax -1.6275 0.999907 0.543511
lowerneck -5.86168 -5.33813 -6.88972
upperneck 12.9568 -6.95604 3.66832
head 5.23351 -3.50472 1.81059
rclavicle -2.67365e-014 1.98785e-015
rhumerus -46.2286 19.2777 -96.0964
rradius 79.2705
rwrist -25.3455
rhand -28.0993 31.2967
rfingers 7.12502
rthumb -1.48179 1.32214
lclavicle -2.67365e-014 1.98785e-015
lhumerus -48.7309 -30.84 101.62
lradius 88.3033
lwrist 20.3222
lhand -15.0849 27.8876
lfingers 7.12502
lthumb 11.0829 57.575
rfemur -6.87437 1.23834 18.3962
rtibia 24.0277
rfoot -16.0364 -16.8884
rtoes -12.5738
lfemur -5.51716 -6.15378 -19.4635
ltibia 21.9539
lfoot -16.7037 10.1904
ltoes -15.8688
2935
root -0.273372 17.9884 -1.60003 0.256427 1.43633 1.04089
lowerback 5.48354 1.48817 -0.260862
upperback 1.4908 1.97637 0.513637
thorax -1.56622 0.986978 0.540187
lowerneck -5.86345 -5.32966 -6.84629
upperneck 12.9879 -6.94525 3.63403
head 5.24009 -3.4996 1.79351
rclavicle -8.3738e-015 1.90833e-014
rhumerus -46.1316 19.3502 -96.1021
rradius 79.2589
rwrist -25.2788
rhand -28.0621 31.2872
rfingers 7.12502
rthumb -1.44591 1.31238
lclavicle -8.3738e-015 1.90833e-014
lhumerus -48.5939 -30.8296 101.492
lradius 88.3666
lwrist 20.3096
lhand -15.1913 27.868
lfingers 7.12502
lthumb 10.9802 57.5609
rfemur -6.82977 1.28446 18.4774
rtibia 23.933
rfoot -15.9972 -16.9407
rtoes -12.5158
lfemur -5.57388 -6.15953 -19.3867
ltibia 22.0443
lfoot -16.7075 10.213
ltoes -15.9519
2936
root -0.273317 17.9895 -1.6034 0.293425 1.46581 1.04528
lowerback 5.44018 1.4862 -0.250956
upperback 1.49194 1.97422 0.508574
thorax -1.54033 0.985871 0.530827
lowerneck -5.8805 -5.34337 -6.85507
upperneck 13.0407 -6.95957 3.60958
head 5.25969 -3.50846 1.78529
rclavicle -2.12451e-014 1.74931e-014
rhumerus -46.026 19.4049 -96.0667
rradius 79.2418
rwrist -25.2413
rhand -28.1328 31.2875
rfingers 7.12502
rthumb -1.51414 1.3131
lclavicle -2.12451e-014 1.74931e-014
lhumerus -48.4578 -30.8865 101.388
lradius 88.3997
lwrist 20.2985
lhand -15.1366 27.8093
lfingers 7.12502
lthumb 11.033 57.4994
rfemur -6.86576 1.23513 18.4719
rtibia 23.8806
rfoot -15.8924 -16.9645
rtoes -12.7634
lfemur -5.64356 -6.21691 -19.3816
ltibia 22.0718
lfoot -16.7207 10.18
ltoes -15.6134
2937
root -0.274063 17.9897 -1.60765 0.292432 1.42682 1.04677
lowerback 5.45398 1.5146 -0.239776
upperback 1.4951 2.01248 0.501927
thorax -1.54461 1.00493 0.514838
lowerneck -5.86964 -5.36964 -6.86688
upperneck 13.0729 -6.99317 3.59423
head 5.26963 -3.52659 1.7799
rclavicle -1.41883e-014 1.47101e-014
rhumerus -45.9538 19.4676 -96.0394
rradius 79.2181
rwrist -25.2101
rhand -28.15 31.305
rfingers 7.12502
rthumb -1.5308 1.3307
lclavicle -1.41883e-014 1.47101e-014
lhumerus -48.3628 -30.9183 101.287
lradius 88.4467
lwrist 20.2341
lhand -14.8579 27.8931
lfingers 7.12502
lthumb 11.3018 57.5686
rfemur -6.89306 1.28066 18.4709
rtibia 23.8891
rfoot -15.9201 -16.9462
rtoes -12.6523
lfemur -5.63915 -6.19533 -19.3792
ltibia 22.0414
lfoot -16.6536 10.1746
ltoes -15.648
2938
root -0.275689 17.9898 -1.61206 0.28093 1.39274 1.04746
lowerback 5.492 1.53013 -0.227994
upperback 1.48945 2.0334 0.481129
thorax -1.57068 1.01536 0.484308
lowerneck -5.8349 -5.38269 -6.87182
upperneck 13.1041 -7.01621 3.61464
head 5.27556 -3.53733 1.78598
rclavicle 3.38679e-014 -8.34896e-015
rhumerus -45.8711 19.528 -96.0482
rradius 79.1587
rwrist -25.2345
rhand -28.0821 31.2374
rfingers 7.12502
rthumb -1.46518 1.26267
lclavicle 3.38679e-014 -8.34896e-015
lhumerus -48.3105 -30.9539 101.2
lradius 88.5211
lwrist 20.4014
lhand -14.9354 28.1328
lfingers 7.12502
lthumb 11.2271 57.8124
rfemur -6.93059 1.31288 18.4779
rtibia 23.9499
rfoot -15.9532 -16.9192
rtoes -12.5779
lfemur -5.60548 -6.19418 -19.3754
ltibia 21.9789
lfoot -16.5753 10.2364
ltoes -15.6895
2939
root -0.27515 17.9914 -1.61324 0.228708 1.36387 1.10871
lowerback 5.52125 1.55113 -0.256957
upperback 1.51256 2.05887 0.440248
thorax -1.56303 1.02807 0.456412
lowerneck -5.84838 -5.40385 -6.8383
upperneck 13.1806 -7.04428 3.57698
head 5.30059 -3.55185 1.76577
rclavicle -5.2181e-015 1.19271e-014
rhumerus -45.8037 19.5376 -96.0458
rradius 79.0934
rwrist -25.2351
rhand -28.0013 31.2008
rfingers 7.12502
rthumb -1.38718 1.22554
lclavicle -5.2181e-015 1.19271e-014
lhumerus -48.2391 -31.0468 101.107
lradius 88.5711
lwrist 20.4845
lhand -15.1915 28.2594
lfingers 7.12502
lthumb 10.98 57.9522
rfemur -6.88508 1.31758 18.4024
rtibia 24.0046
rfoot -16.0446 -16.7903
rtoes -11.8373
lfemur -5.51535 -6.18754 -19.4634
ltibia 21.9225
lfoot -16.5828 10.2863
ltoes -15.8397
